<svg width="55" height="56" viewBox="0 0 55 56" fill="none" xmlns="http://www.w3.org/2000/svg">
<g clip-path="url(#clip0_37_11)">
<path d="M31.6059 17.3088L23.7732 19.4075C23.1397 19.5773 22.492 19.2062 22.3234 18.5772L22.0349 17.5005C21.8663 16.8714 22.2418 16.2262 22.8753 16.0565L30.708 13.9577C31.3414 13.788 31.7169 13.1428 31.5483 12.5138L29.4673 4.74714C29.2987 4.11807 29.6742 3.47289 30.3077 3.30316L31.3918 3.01266C32.0252 2.84293 32.673 3.21394 32.8416 3.84301L34.9259 11.6217C35.0944 12.2508 35.7422 12.6218 36.3756 12.4521L44.2084 10.3533C44.8142 10.178 45.462 10.549 45.6305 11.1781L45.919 12.2547C46.0876 12.8838 45.7121 13.529 45.0787 13.6987L37.2459 15.7975C36.6125 15.9672 36.237 16.6124 36.4056 17.2415L38.4899 25.0202C38.6584 25.6493 38.283 26.2945 37.6495 26.4642L36.5654 26.7547C35.9319 26.9244 35.2841 26.5534 35.1156 25.9243L33.0281 18.1335C32.8749 17.5133 32.2271 17.1423 31.6059 17.3088Z" fill="url(#paint0_linear_37_11)"/>
<path d="M30.8688 42.8679L26.3008 44.0919C25.6673 44.2616 25.0196 43.8906 24.851 43.2615C24.6824 42.6325 25.0579 41.9873 25.6914 41.8176L30.2594 40.5935C30.8929 40.4238 31.2683 39.7786 31.0998 39.1496L29.8842 34.613C29.7157 33.9839 30.0911 33.3387 30.7246 33.169C31.358 32.9993 32.0058 33.3703 32.1743 33.9994L33.3899 38.5359C33.5585 39.165 34.2062 39.536 34.8397 39.3663L39.4078 38.1423C40.0412 37.9725 40.689 38.3435 40.8575 38.9726C41.0261 39.6017 40.6506 40.2469 40.0172 40.4166L35.4491 41.6406C34.8157 41.8103 34.4402 42.4555 34.6087 43.0846L35.8243 47.6212C35.9929 48.2502 35.6174 48.8954 34.9839 49.0651C34.3505 49.2349 33.7027 48.8639 33.5342 48.2348L32.3186 43.6982C32.15 43.0692 31.5023 42.6982 30.8688 42.8679Z" fill="url(#paint1_linear_37_11)"/>
<path d="M11.1694 30.305L6.6135 31.5257C5.98006 31.6955 5.33229 31.3244 5.16697 30.7075C4.99841 30.0784 5.37389 29.4332 6.00733 29.2635L10.5754 28.0395C11.2088 27.8697 11.5843 27.2246 11.4158 26.5955L10.2002 22.0589C10.0316 21.4298 10.4071 20.7847 11.0406 20.6149C11.674 20.4452 12.3218 20.8162 12.4903 21.4453L13.7059 25.9819C13.8745 26.6109 14.5222 26.9819 15.1557 26.8122L19.7237 25.5882C20.3572 25.4185 21.0049 25.7895 21.1735 26.4185C21.3421 27.0476 20.9666 27.6928 20.3331 27.8625L15.7407 29.0931C15.1073 29.2628 14.7318 29.908 14.9003 30.537L16.1159 35.0736C16.2845 35.7027 15.909 36.3479 15.2756 36.5176C14.6421 36.6873 13.9943 36.3163 13.8258 35.6873L12.6102 31.1507C12.4506 30.5063 11.8028 30.1352 11.1694 30.305Z" fill="url(#paint2_linear_37_11)"/>
</g>
<defs>
<linearGradient id="paint0_linear_37_11" x1="22.1841" y1="18.0345" x2="45.774" y2="11.7136" gradientUnits="userSpaceOnUse">
<stop stop-color="#1EDA8E"/>
<stop offset="0.9894" stop-color="#2FADEE"/>
</linearGradient>
<linearGradient id="paint1_linear_37_11" x1="24.8621" y1="43.2652" x2="40.8338" y2="38.9856" gradientUnits="userSpaceOnUse">
<stop stop-color="#1EDA8E"/>
<stop offset="0.9894" stop-color="#2FADEE"/>
</linearGradient>
<linearGradient id="paint2_linear_37_11" x1="5.16584" y1="30.7032" x2="21.1375" y2="26.4236" gradientUnits="userSpaceOnUse">
<stop stop-color="#1EDA8E"/>
<stop offset="0.9894" stop-color="#2FADEE"/>
</linearGradient>
<clipPath id="clip0_37_11">
<rect width="44.1394" height="45.4005" fill="white" transform="translate(0 11.4241) rotate(-15)"/>
</clipPath>
</defs>
</svg>
